<!-- Generated by IcoMoon.io -->
<svg version="1.1" xmlns="http://www.w3.org/2000/svg" width="32" height="32" viewBox="0 0 32 32">
<path fill="#fff" d="M0.389 2.277c-0.124-0.124-0.222-0.271-0.289-0.433s-0.102-0.336-0.102-0.511c0-0.175 0.035-0.349 0.102-0.511s0.165-0.309 0.289-0.433c0.124-0.124 0.271-0.222 0.433-0.289s0.336-0.102 0.511-0.102c0.175 0 0.349 0.035 0.511 0.102s0.309 0.165 0.433 0.289l13.723 13.725 13.723-13.725c0.124-0.124 0.271-0.222 0.433-0.289s0.336-0.102 0.511-0.102 0.349 0.035 0.511 0.102c0.162 0.067 0.309 0.165 0.433 0.289s0.222 0.271 0.289 0.433c0.067 0.162 0.102 0.336 0.102 0.511s-0.034 0.349-0.102 0.511c-0.067 0.162-0.165 0.309-0.289 0.433l-13.725 13.723 13.725 13.723c0.124 0.124 0.222 0.271 0.289 0.433s0.102 0.336 0.102 0.511c0 0.175-0.034 0.349-0.102 0.511s-0.165 0.309-0.289 0.433-0.271 0.222-0.433 0.289c-0.162 0.067-0.336 0.102-0.511 0.102s-0.349-0.035-0.511-0.102c-0.162-0.067-0.309-0.165-0.433-0.289l-13.723-13.725-13.723 13.725c-0.124 0.124-0.271 0.222-0.433 0.289s-0.336 0.102-0.511 0.102-0.349-0.035-0.511-0.102c-0.162-0.067-0.309-0.165-0.433-0.289s-0.222-0.271-0.289-0.433c-0.067-0.162-0.102-0.335-0.102-0.511s0.035-0.349 0.102-0.511c0.067-0.162 0.165-0.309 0.289-0.433l13.725-13.723-13.725-13.723z"></path>
</svg>
